<mxfile host="65bd71144e">
    <diagram id="ErplEDKlFAF8Tl-hgR_O" name="Page-1">
        <mxGraphModel dx="819" dy="612" grid="1" gridSize="10" guides="1" tooltips="1" connect="1" arrows="1" fold="1" page="1" pageScale="1" pageWidth="850" pageHeight="1100" math="0" shadow="0">
            <root>
                <mxCell id="0"/>
                <mxCell id="1" parent="0"/>
                <mxCell id="2" value="" style="endArrow=block;html=1;fontColor=#000099;endFill=0;entryX=0;entryY=0.1;entryDx=0;entryDy=0;endSize=8;arcSize=0;exitX=0.5;exitY=1;exitDx=0;exitDy=0;" edge="1" source="3" target="38" parent="1">
                    <mxGeometry width="50" height="50" relative="1" as="geometry">
                        <mxPoint x="290" y="330" as="sourcePoint"/>
                        <mxPoint x="270" y="402.9999999999999" as="targetPoint"/>
                    </mxGeometry>
                </mxCell>
                <mxCell id="3" value="ns:LeafNode" style="rounded=0;whiteSpace=wrap;html=1;snapToPoint=1;points=[[0.1,0],[0.2,0],[0.3,0],[0.4,0],[0.5,0],[0.6,0],[0.7,0],[0.8,0],[0.9,0],[0,0.1],[0,0.3],[0,0.5],[0,0.7],[0,0.9],[0.1,1],[0.2,1],[0.3,1],[0.4,1],[0.5,1],[0.6,1],[0.7,1],[0.8,1],[0.9,1],[1,0.1],[1,0.3],[1,0.5],[1,0.7],[1,0.9]];" vertex="1" parent="1">
                    <mxGeometry x="120" y="310" width="100" height="30" as="geometry"/>
                </mxCell>
                <mxCell id="5" value="" style="endArrow=block;html=1;fontColor=#000099;exitX=0.5;exitY=1;exitDx=0;exitDy=0;endFill=0;entryX=0.1;entryY=0;entryDx=0;entryDy=0;endSize=8;arcSize=0;" edge="1" source="6" target="38" parent="1">
                    <mxGeometry width="50" height="50" relative="1" as="geometry">
                        <mxPoint x="275" y="340" as="sourcePoint"/>
                        <mxPoint x="287.9000000000008" y="399.9999999999999" as="targetPoint"/>
                    </mxGeometry>
                </mxCell>
                <mxCell id="6" value="ns:RootNode" style="rounded=0;whiteSpace=wrap;html=1;snapToPoint=1;points=[[0.1,0],[0.2,0],[0.3,0],[0.4,0],[0.5,0],[0.6,0],[0.7,0],[0.8,0],[0.9,0],[0,0.1],[0,0.3],[0,0.5],[0,0.7],[0,0.9],[0.1,1],[0.2,1],[0.3,1],[0.4,1],[0.5,1],[0.6,1],[0.7,1],[0.8,1],[0.9,1],[1,0.1],[1,0.3],[1,0.5],[1,0.7],[1,0.9]];" vertex="1" parent="1">
                    <mxGeometry x="240" y="280" width="100" height="30" as="geometry"/>
                </mxCell>
                <mxCell id="23" style="edgeStyle=orthogonalEdgeStyle;curved=1;html=1;exitX=0.8;exitY=0;exitDx=0;exitDy=0;entryX=1;entryY=0.3;entryDx=0;entryDy=0;" edge="1" parent="1" source="38" target="38">
                    <mxGeometry relative="1" as="geometry">
                        <mxPoint x="449" y="408.9999999999999" as="targetPoint"/>
                        <mxPoint x="413.1999999999996" y="399.9999999999999" as="sourcePoint"/>
                        <Array as="points">
                            <mxPoint x="413" y="360"/>
                            <mxPoint x="510" y="360"/>
                            <mxPoint x="510" y="409"/>
                        </Array>
                    </mxGeometry>
                </mxCell>
                <mxCell id="28" value="ns:hasChild" style="edgeLabel;html=1;align=center;verticalAlign=middle;resizable=0;points=[];" vertex="1" connectable="0" parent="23">
                    <mxGeometry x="0.3233" y="-1" relative="1" as="geometry">
                        <mxPoint as="offset"/>
                    </mxGeometry>
                </mxCell>
                <mxCell id="24" style="edgeStyle=orthogonalEdgeStyle;curved=1;html=1;exitX=0.7;exitY=0;exitDx=0;exitDy=0;entryX=1;entryY=0.3;entryDx=0;entryDy=0;" edge="1" parent="1" source="38" target="38">
                    <mxGeometry relative="1" as="geometry">
                        <mxPoint x="449" y="408.9999999999999" as="targetPoint"/>
                        <mxPoint x="395.2999999999997" y="399.9999999999999" as="sourcePoint"/>
                        <Array as="points">
                            <mxPoint x="395" y="340"/>
                            <mxPoint x="530" y="340"/>
                            <mxPoint x="530" y="420"/>
                            <mxPoint x="449" y="420"/>
                        </Array>
                    </mxGeometry>
                </mxCell>
                <mxCell id="29" value="ns:hasDescendant" style="edgeLabel;html=1;align=center;verticalAlign=middle;resizable=0;points=[];" vertex="1" connectable="0" parent="24">
                    <mxGeometry x="0.1792" y="-7" relative="1" as="geometry">
                        <mxPoint as="offset"/>
                    </mxGeometry>
                </mxCell>
                <mxCell id="25" style="edgeStyle=orthogonalEdgeStyle;curved=1;html=1;exitX=0.6;exitY=0;exitDx=0;exitDy=0;entryX=1;entryY=0.5;entryDx=0;entryDy=0;" edge="1" parent="1" source="38" target="38">
                    <mxGeometry relative="1" as="geometry">
                        <mxPoint x="449" y="415" as="targetPoint"/>
                        <mxPoint x="377.39999999999986" y="399.9999999999999" as="sourcePoint"/>
                        <Array as="points">
                            <mxPoint x="377" y="320"/>
                            <mxPoint x="550" y="320"/>
                            <mxPoint x="550" y="430"/>
                            <mxPoint x="449" y="430"/>
                        </Array>
                    </mxGeometry>
                </mxCell>
                <mxCell id="30" value="ns:hasParent" style="edgeLabel;html=1;align=center;verticalAlign=middle;resizable=0;points=[];" vertex="1" connectable="0" parent="25">
                    <mxGeometry x="-0.0196" y="-17" relative="1" as="geometry">
                        <mxPoint y="1" as="offset"/>
                    </mxGeometry>
                </mxCell>
                <mxCell id="26" style="edgeStyle=orthogonalEdgeStyle;curved=1;html=1;exitX=0.5;exitY=0;exitDx=0;exitDy=0;entryX=1;entryY=0.7;entryDx=0;entryDy=0;" edge="1" parent="1" source="38" target="38">
                    <mxGeometry relative="1" as="geometry">
                        <mxPoint x="440" y="430" as="targetPoint"/>
                        <mxPoint x="359.5" y="399.9999999999999" as="sourcePoint"/>
                        <Array as="points">
                            <mxPoint x="360" y="290"/>
                            <mxPoint x="570" y="290"/>
                            <mxPoint x="570" y="450"/>
                            <mxPoint x="449" y="450"/>
                        </Array>
                    </mxGeometry>
                </mxCell>
                <mxCell id="31" value="ns:hasAncestor" style="edgeLabel;html=1;align=center;verticalAlign=middle;resizable=0;points=[];" vertex="1" connectable="0" parent="26">
                    <mxGeometry x="0.0912" y="-20" relative="1" as="geometry">
                        <mxPoint as="offset"/>
                    </mxGeometry>
                </mxCell>
                <mxCell id="27" style="edgeStyle=orthogonalEdgeStyle;curved=1;html=1;exitX=0.4;exitY=0;exitDx=0;exitDy=0;entryX=1;entryY=0.9;entryDx=0;entryDy=0;" edge="1" parent="1" source="38" target="38">
                    <mxGeometry relative="1" as="geometry">
                        <mxPoint x="449" y="427" as="targetPoint"/>
                        <mxPoint x="341.60000000000014" y="399.9999999999999" as="sourcePoint"/>
                        <Array as="points">
                            <mxPoint x="342" y="270"/>
                            <mxPoint x="590" y="270"/>
                            <mxPoint x="590" y="470"/>
                            <mxPoint x="449" y="470"/>
                        </Array>
                    </mxGeometry>
                </mxCell>
                <mxCell id="32" value="ns:hasSibling" style="edgeLabel;html=1;align=center;verticalAlign=middle;resizable=0;points=[];" vertex="1" connectable="0" parent="27">
                    <mxGeometry x="-0.1044" y="-19" relative="1" as="geometry">
                        <mxPoint y="1" as="offset"/>
                    </mxGeometry>
                </mxCell>
                <mxCell id="37" value="ns:hasOutDegree:positiveInteger" style="rounded=0;whiteSpace=wrap;html=1;snapToPoint=1;points=[[0.1,0],[0.2,0],[0.3,0],[0.4,0],[0.5,0],[0.6,0],[0.7,0],[0.8,0],[0.9,0],[0,0.1],[0,0.3],[0,0.5],[0,0.7],[0,0.9],[0.1,1],[0.2,1],[0.3,1],[0.4,1],[0.5,1],[0.6,1],[0.7,1],[0.8,1],[0.9,1],[1,0.1],[1,0.3],[1,0.5],[1,0.7],[1,0.9]];" vertex="1" parent="1">
                    <mxGeometry x="250" y="430" width="199" height="30" as="geometry"/>
                </mxCell>
                <mxCell id="38" value="ns:TreeNode" style="rounded=0;whiteSpace=wrap;html=1;snapToPoint=1;points=[[0.1,0],[0.2,0],[0.3,0],[0.4,0],[0.5,0],[0.6,0],[0.7,0],[0.8,0],[0.9,0],[0,0.1],[0,0.3],[0,0.5],[0,0.7],[0,0.9],[0.1,1],[0.2,1],[0.3,1],[0.4,1],[0.5,1],[0.6,1],[0.7,1],[0.8,1],[0.9,1],[1,0.1],[1,0.3],[1,0.5],[1,0.7],[1,0.9]];" vertex="1" parent="1">
                    <mxGeometry x="250" y="400" width="199" height="30" as="geometry"/>
                </mxCell>
            </root>
        </mxGraphModel>
    </diagram>
</mxfile>